<svg width="32" height="32" fill="none" xmlns="http://www.w3.org/2000/svg"><path d="M0 6a6 6 0 016-6h20a6 6 0 016 6v20a6 6 0 01-6 6H6a6 6 0 01-6-6V6z" fill="#fff"/><path d="M10.667 12.667v6.666C10.667 20.807 13.055 22 16 22c2.945 0 5.333-1.193 5.333-2.667v-6.666H10.667zm0 0c0 1.473 2.388 2.666 5.333 2.666 2.945 0 5.333-1.193 5.333-2.666H10.667zm0 0C10.667 11.193 13.055 10 16 10c2.945 0 5.333 1.193 5.333 2.667H10.667zM21.333 16c0 1.473-2.388 2.667-5.333 2.667-2.945 0-5.333-1.194-5.333-2.667" fill="#C4C4C4"/></svg>