<svg width="32" height="32" fill="none" xmlns="http://www.w3.org/2000/svg"><path fill-rule="evenodd" clip-rule="evenodd" d="M16 2a1.4 1.4 0 011.4 1.4v1.4a1.4 1.4 0 01-2.8 0V3.4A1.4 1.4 0 0116 2zM6.1 6.1a1.4 1.4 0 011.98 0l.99.99a1.4 1.4 0 11-1.98 1.98l-.99-.99a1.4 1.4 0 010-1.98zm19.8 0a1.4 1.4 0 010 1.98l-.99.99a1.4 1.4 0 01-1.98-1.98l.99-.99a1.4 1.4 0 011.98 0zM9 16a7 7 0 1114 0 7 7 0 01-14 0zm-7 0a1.4 1.4 0 011.4-1.4h1.4a1.4 1.4 0 110 2.8H3.4A1.4 1.4 0 012 16zm23.8 0a1.4 1.4 0 011.4-1.4h1.4a1.4 1.4 0 110 2.8h-1.4a1.4 1.4 0 01-1.4-1.4zm-2.87 6.93a1.399 1.399 0 011.98 0l.99.99a1.401 1.401 0 01-1.526 2.283 1.401 1.401 0 01-.454-.303l-.99-.99a1.399 1.399 0 010-1.98zm-15.84 0a1.4 1.4 0 111.98 1.98l-.99.99a1.4 1.4 0 01-1.98-1.98l.99-.99zM16 25.8a1.4 1.4 0 011.4 1.4v1.4a1.4 1.4 0 11-2.8 0v-1.4a1.4 1.4 0 011.4-1.4z" fill="url(#paint0_linear)"/><defs><linearGradient id="paint0_linear" x1="2" y1="2" x2="30" y2="30" gradientUnits="userSpaceOnUse"><stop stop-color="#BBB"/><stop offset="1" stop-color="#BBB"/></linearGradient></defs></svg>