<svg width="18" height="18" fill="none" xmlns="http://www.w3.org/2000/svg"><path d="M12 16.5v-2.902a2.529 2.529 0 00-.705-1.958c2.355-.263 4.83-1.155 4.83-5.25A4.08 4.08 0 0015 3.577 3.803 3.803 0 0014.932.75S14.047.487 12 1.86a10.035 10.035 0 00-5.25 0C4.702.487 3.817.75 3.817.75a3.802 3.802 0 00-.067 2.827 4.08 4.08 0 00-1.125 2.835c0 4.065 2.475 4.958 4.83 5.25a2.527 2.527 0 00-.705 1.935V16.5m0-2.25C3 15.375 3 12.375 1.5 12l5.25 2.25z" stroke="#000" stroke-width=".75" stroke-linecap="round" stroke-linejoin="round"/></svg>